Coordinates
version=1
nRows=8
nColumns=63
inDegrees=yes

Units are S.I. units (second, meters, Newtons, ...)
If the header above contains a line with 'inDegrees', this indicates whether rotational values are in degrees (yes) or radians (no).

endheader
time	pelvis_tilt	pelvis_list	pelvis_rotation	pelvis_tx	pelvis_ty	pelvis_tz	hip_flexion_r	hip_adduction_r	hip_rotation_r	knee_angle_r	knee_angle_r_beta	ankle_angle_r	subtalar_angle_r	mtp_angle_r	hip_flexion_l	hip_adduction_l	hip_rotation_l	knee_angle_l	knee_angle_l_beta	ankle_angle_l	subtalar_angle_l	mtp_angle_l	L5_S1_Flex_Ext	L5_S1_Lat_Bending	L5_S1_axial_rotation	L4_L5_Flex_Ext	L4_L5_Lat_Bending	L4_L5_axial_rotation	L3_L4_Flex_Ext	L3_L4_Lat_Bending	L3_L4_axial_rotation	L2_L3_Flex_Ext	L2_L3_Lat_Bending	L2_L3_axial_rotation	L1_L2_Flex_Ext	L1_L2_Lat_Bending	L1_L2_axial_rotation	L1_T12_Flex_Ext	L1_T12_Lat_Bending	L1_T12_axial_rotation	Abs_r3	Abs_r2	Abs_r1	Abs_t1	Abs_t2	neck_flexion	neck_bending	neck_rotation	arm_flex_r	arm_add_r	arm_rot_r	elbow_flex_r	pro_sup_r	wrist_flex_r	wrist_dev_r	arm_flex_l	arm_add_l	arm_rot_l	elbow_flex_l	pro_sup_l	wrist_flex_l	wrist_dev_l
      4.95000000	      7.46163724	    -14.91315258	    100.74376706	      0.34582069	      0.92134423	      0.53279802	     31.22331950	      9.00029496	      2.85942604	     23.12421032	      0.40359361	     20.44815177	    -16.81322270	      0.00000000	     32.21113063	     -9.50827536	     -0.17686435	     28.57301802	      0.49869324	     24.92422396	     -9.41484766	      0.00000000	     -0.18106670	     -0.00532956	      3.38155547	     -0.33625896	     -0.00708831	      3.59290269	     -0.29747447	     -0.01295828	      3.59290269	     -0.20694113	     -0.01295828	      2.95886104	     -0.16813853	     -0.01086803	      2.74751382	     -0.10346151	     -0.00825548	      2.53616660	     -1.29334130	     -0.06028900	     18.80719706	      0.00000000	      0.00000000	     13.65946201	     -1.27888123	     -9.48847999	     -1.28193063	    -15.78507829	      1.98118341	     90.29186809	     89.06921222	     -2.47585356	     12.58279643	     -4.31298899	    -12.35722831	      1.30519153	     97.11936324	     89.05296636	    -12.38053335	     13.79199837
      4.96666667	      7.42030813	    -14.88880658	    100.84983892	      0.34479958	      0.92180271	      0.53360971	     31.18150136	      8.84691116	      2.77743818	     23.01896110	      0.40175666	     20.14075531	    -16.78070276	      0.00000000	     32.10053692	     -9.27455003	      0.05781879	     28.29882766	      0.49390772	     24.54689312	     -9.84923153	      0.00000000	     -0.17922960	     -0.01080693	      3.36951111	     -0.33284728	     -0.01437322	      3.58010555	     -0.29445630	     -0.02627597	      3.58010555	     -0.20484151	     -0.02627597	      2.94832222	     -0.16643260	     -0.02203749	      2.73772778	     -0.10241179	     -0.01673994	      2.52713333	     -1.28021908	     -0.12225016	     18.74020993	      0.00000000	      0.00000000	     13.01697803	     -1.19101508	     -9.48026048	     -1.35519027	    -16.33362340	     -0.86965049	     89.15530146	     89.12960913	     -1.56856278	     10.17867173	     -5.10124480	    -12.04841326	      0.91213738	     97.74423865	     89.04094080	    -11.71285694	     15.22174425
      4.98333333	      7.23228876	    -14.95726392	    100.67388151	      0.34409998	      0.92188874	      0.53491561	     31.34644281	      8.67176360	      2.96164177	     23.15098411	      0.40406090	     19.99873596	    -16.73855738	      0.00000000	     32.10233891	     -9.02671183	      0.00783555	     28.16336115	      0.49154338	     24.18053121	    -10.32568153	      0.00000000	     -0.16994917	     -0.03356301	      3.36736719	     -0.31561260	     -0.04463880	      3.57782764	     -0.27920949	     -0.08160509	      3.57782764	     -0.19423490	     -0.08160509	      2.94644629	     -0.15781480	     -0.06844168	      2.73598584	     -0.09710895	     -0.05198910	      2.52552539	     -1.21392990	     -0.37967143	     18.72828611	      0.00000000	      0.00000000	     12.58779775	     -0.79509995	     -9.09472565	     -0.82165018	    -16.56627739	     -4.15867991	     87.65431274	     89.11371826	     -1.10250023	      7.64092187	     -5.93994497	    -11.58193880	      0.18947814	     98.23823256	     88.96071694	    -11.65238997	     15.38385183
      5.00000000	      6.98939555	    -15.14502418	    100.40153559	      0.34358966	      0.92165331	      0.53648053	     31.73822570	      8.47378764	      3.24483011	     23.47172919	      0.40965896	     20.02719054	    -16.62094673	      0.00000000	     32.28799313	     -8.77529819	     -0.22082497	     28.16314215	      0.49153956	     23.86332287	    -10.72862672	      0.00000000	     -0.15446506	     -0.06313223	      3.36757143	     -0.28685706	     -0.08396587	      3.57804464	     -0.25377065	     -0.15349971	      3.57804464	     -0.17653812	     -0.15349971	      2.94662500	     -0.14343625	     -0.12873925	      2.73615178	     -0.08826133	     -0.09779183	      2.52567857	     -1.10332847	     -0.71416446	     18.72942200	      0.00000000	      0.00000000	     12.45160211	     -0.29266796	     -8.51318274	      0.15965727	    -16.35616352	     -7.83267611	     86.11432892	     88.98577328	     -1.57324361	      5.59913195	     -6.72156075	    -10.91462226	     -0.79166078	     98.63844606	     88.82316387	    -12.04530274	     15.02916095
      5.01666667	      6.53737837	    -15.34481015	     99.86361218	      0.34339113	      0.92155875	      0.53797814	     32.15173649	      8.20956802	      3.80556278	     23.90004832	      0.41713453	     20.17284945	    -16.46681920	      0.00000000	     32.36377858	     -8.43146928	     -0.70578936	     28.12211885	      0.49082357	     23.46039486	    -11.36187370	      0.00000000	     -0.15541132	     -0.11271800	      3.38757649	     -0.28861436	     -0.14991494	      3.59930002	     -0.25532526	     -0.27406255	      3.59930002	     -0.17761960	     -0.27406255	      2.96412943	     -0.14431495	     -0.22985455	      2.75240590	     -0.08880203	     -0.17460019	      2.54068237	     -1.11008752	     -1.27508860	     18.84068416	      0.00000000	      0.00000000	     12.44017254	      0.23556495	     -8.05628311	      1.64132636	    -15.61556589	    -11.53509465	     84.36336378	     88.60794003	     -3.18393271	      3.06989821	     -7.26824393	    -10.40169701	     -1.65310413	     98.81600117	     88.62273509	    -12.99561841	     14.26637693
      5.03333333	      6.44485056	    -15.43637576	     99.72956787	      0.34286816	      0.92148741	      0.53910100	     32.44846284	      8.11682908	      3.90639933	     24.17514978	      0.42193596	     20.28681005	    -16.34246587	      0.00000000	     32.51763654	     -8.33110096	     -0.94144064	     28.20830124	      0.49232773	     23.23564601	    -11.55111659	      0.00000000	     -0.15610070	     -0.11408259	      3.36525627	     -0.28989461	     -0.15172985	      3.57558478	     -0.25645784	     -0.27738042	      3.57558478	     -0.17840749	     -0.27738042	      2.94459923	     -0.14495511	     -0.23263722	      2.73427072	     -0.08919594	     -0.17671394	      2.52394220	     -1.11501168	     -1.29052511	     18.71654578	      0.00000000	      0.00000000	     12.53277722	      0.39478627	     -7.54494216	      3.15589368	    -14.53414357	    -15.72419737	     83.46416605	     87.46488752	     -4.81758065	      2.96095194	     -7.63047039	     -9.66528439	     -2.54903867	     98.90229387	     88.40917844	    -13.44497239	     14.14546397
      5.05000000	      5.96824956	    -15.67001912	     99.30419147	      0.34305166	      0.92143052	      0.53976096	     32.83828006	      7.79905847	      4.40114127	     24.54745259	      0.42843387	     20.52851844	    -16.00411842	      0.00000000	     32.50261228	     -7.94087342	     -1.34640922	     28.02977195	      0.48921181	     22.75381415	    -12.23737347	      0.00000000	     -0.15346795	     -0.17783530	      3.48445351	     -0.28500532	     -0.23652095	      3.70223185	     -0.25213249	     -0.43238876	      3.70223185	     -0.17539852	     -0.43238876	      3.04889682	     -0.14251034	     -0.36264175	      2.83111848	     -0.08769158	     -0.27546689	      2.61334013	     -1.09620620	     -2.01170852	     19.37948508	      0.00000000	      0.00000000	     12.85847066	      0.75215925	     -7.82801176	      4.14715475	    -13.25632811	    -19.87071091	     83.76398603	     82.77924695	     -8.42553874	      4.27996893	     -7.29369492	     -9.68877691	     -2.30362982	     98.75345681	     88.15813498	    -14.18654105	     14.11589969
      5.06666667	      5.71278276	    -15.69802832	     99.00529653	      0.34325685	      0.92163461	      0.53998656	     32.94541304	      7.69355086	      4.69757205	     24.72083812	      0.43146002	     20.54801067	    -15.98012804	      0.00000000	     32.30276984	     -7.78361561	     -1.58829604	     27.84019058	      0.48590299	     22.26873242	    -12.69518637	      0.00000000	     -0.16153401	     -0.22288427	      3.62917988	     -0.29998480	     -0.29643608	      3.85600363	     -0.26538422	     -0.54192082	      3.85600363	     -0.18461722	     -0.54192082	      3.17553240	     -0.15000048	     -0.45450561	      2.94870866	     -0.09230053	     -0.34524774	      2.72188491	     -1.15382126	     -2.52131148	     20.18440976	      0.00000000	      0.00000000	     13.15905504	      0.91123746	     -8.55231534	      4.87934092	    -12.48201756	    -23.46865841	     84.79625665	     74.84999655	    -11.57938831	      5.87554881	     -6.74595112	     -9.76436174	     -1.66021589	     98.58624415	     87.94098114	    -14.58306170	     14.43470778
